# xmcd
#
# Track frame offsets:
#      150
#      18228
#      45984
#      66981
#      77561
#      98129
#      114849
#      133064
#      149914
#      170551
#      180839
#      205179
#      231329
#      244695
# 
# Disc length: 3499 seconds
#
# Revision: 8
# Processed by: cddbd v1.4PL0 Copyright (c) Steve Scherf et al.
#
# Submitted via: FreeRIP 1.20
#
DISCID=b90da90e
DTITLE=Mike Oldfield - Tr3s Lunas
DYEAR=2002
DGENRE=New Age
TTITLE0=Misty
TTITLE1=No mans land
TTITLE2=Return to the origin
TTITLE3=Landfall
TTITLE4=Viper
TTITLE5=Turtle island
TTITLE6=To be free
TTITLE7=Firefly
TTITLE8=Tr3s Lunas
TTITLE9=Daydream
TTITLE10=Thou Art in heaven
TTITLE11=Sirius
TTITLE12=No mans land (reprise bonus track)
TTITLE13=To be free (radio edit)
EXTD=YEAR: 2002
EXTT0=
EXTT1=
EXTT2=
EXTT3=
EXTT4=
EXTT5=
EXTT6=
EXTT7=
EXTT8=
EXTT9=
EXTT10=
EXTT11=
EXTT12=
EXTT13=
PLAYORDER=
